<svg xmlns="http://www.w3.org/2000/svg" viewBox="0 0 315.68 345.39"><defs><style>.cls-1{fill:#42b7b8;}.cls-2{fill:#3f3f3f;}.cls-3{fill:#f4a486;}.cls-4{fill:#c46d56;}.cls-5{fill:#f5bf9b;}.cls-6{fill:#605d5a;}.cls-7{fill:#3b413d;}.cls-8{fill:#fce2d3;}.cls-9{fill:#f7d3ba;}.cls-10{fill:none;stroke:#3f3f3f;stroke-linejoin:round;stroke-width:5.44px;}.cls-11{fill:#049299;}.cls-12{fill:#6ec2be;}</style></defs><g id="Capa_2" data-name="Capa 2"><g id="Capa_1-2" data-name="Capa 1"><path class="cls-1" d="M315.68,189.78C312.14,397.26,3.52,397.23,0,189.77,3.55-17.7,312.17-17.67,315.68,189.78Z"/><path class="cls-2" d="M96.9,42.61H217.39c13.34,0,24.14,11.82,24.14,26.4v64.51c0,14.58-10.8,26.39-24.14,26.39H96.9c-13.33,0-24.14-11.81-24.14-26.39V69C72.76,54.43,83.57,42.61,96.9,42.61Z"/><path class="cls-3" d="M222.56,148.43c.07,20.14,34.22,20.14,34.3,0C256.79,128.29,222.63,128.29,222.56,148.43Z"/><path class="cls-3" d="M59,149c.08,20.14,34.23,20.14,34.3,0S59.07,128.8,59,149Z"/><path class="cls-4" d="M231.17,148.7c-.16,8.14,15.17,8.14,15,0C246.34,140.56,231,140.56,231.17,148.7Z"/><path class="cls-4" d="M67.6,149.22c-.15,8.14,15.17,8.14,15,0C82.77,141.08,67.45,141.08,67.6,149.22Z"/><path class="cls-2" d="M126.23,0C96.89-1.26,74.57,29.2,86.53,55.91l23.12.32c8,12.34,85.46,4.33,97.92,6.47,12.48,0,22.58-8.89,22.58-19.86,0-18.48,4.22-41.67-22.58-42.8Z"/><path class="cls-5" d="M124.3,46.6c-63.89,1.15-39.43,91.12-43.88,130.49C79.51,222.44,115,260.66,159,260.5c93.55-4.27,78.62-103.64,78.67-170C236.24,31.14,162.35,49.13,124.3,46.6Z"/><path class="cls-5" d="M170.27,251.2h-30a5.45,5.45,0,0,0-5.49,5.4v25.49a5.45,5.45,0,0,0,5.49,5.4h30a5.45,5.45,0,0,0,5.49-5.4V256.6A5.45,5.45,0,0,0,170.27,251.2Z"/><path class="cls-3" d="M168.45,252.07H142.09c-9.72-.14-9.71,16.09,0,15.94h26.36a7.52,7.52,0,0,0,7.31-8.63A7.32,7.32,0,0,0,168.45,252.07Z"/><path class="cls-2" d="M226.77,130.48c3.69,53.5-2.54,112.43-68,115.65C91.9,241.61,87.81,185,90.84,130.48H78.14c-4.2,63.87,4,129.06,80.87,133.8,75.54-3.59,85.77-70.92,81-133.8Z"/><rect class="cls-2" x="148.57" y="228.86" width="16.29" height="22.34"/><path class="cls-2" d="M150.71,177.29h-37c-6-.07-6,7.73,0,7.67h37C156.68,185,156.67,177.22,150.71,177.29Z"/><path class="cls-2" d="M199.57,177.29h-37c-6-.07-5.95,7.73,0,7.66h37C205.54,185,205.52,177.22,199.57,177.29Z"/><path class="cls-6" d="M99.53,27.85H137.8c5.8-.08,5.82,9,0,9H99.53C93.73,36.9,93.71,27.77,99.53,27.85Z"/><path class="cls-6" d="M141.19,9.06H198c3.66,0,6.64,1.89,6.64,4.22s-3,4.22-6.64,4.22H141.19C132.58,17.58,132.55,9,141.19,9.06Z"/><path class="cls-6" d="M161.82,27.45H200.1c5.8-.09,5.81,9,0,9H161.82C156,36.49,156,27.36,161.82,27.45Z"/><path class="cls-7" d="M136.47,75.08H102.89c-3.78,0-5.88,3.55-5.4,7a5.4,5.4,0,0,0,5.4,5.4h33.58C143.76,87.61,143.75,75,136.47,75.08Z"/><path class="cls-7" d="M210.92,75.08H179.79c-8.26-.14-8.25,12.36,0,12.22h31.13c3.4,0,6.16-2.42,6.16-5.4A5.92,5.92,0,0,0,210.92,75.08Z"/><path class="cls-8" d="M147.65,105.9H89.07c-3,0-5.41,1.72-5.41,3.82-1.77,27.16,1.5,55.27,34.69,57.17,32.77-1.54,36.68-30.37,34.73-57.17C153.08,107.62,150.64,105.9,147.65,105.9Z"/><path class="cls-8" d="M226.92,105.9H168.35c-3,0-5.41,1.72-5.41,3.82-1.78,27.17,1.5,55.27,34.69,57.18,32.77-1.55,36.67-30.37,34.73-57.18C232.36,107.62,229.91,105.9,226.92,105.9Z"/><path class="cls-9" d="M164.34,127.3l.11,5.73c.4,0,39.05,34.58,39.55,33.9,0-.24,2.95-2.91,2.39-3.19Z"/><path class="cls-9" d="M196.07,107.38l-6.34.14,39.16,33.93c.38.52,2.53-2.77,2.81-2.82C232.26,138,196.12,107.81,196.07,107.38Z"/><line class="cls-9" x1="189.62" y1="101.79" x2="196.07" y2="107.38"/><path class="cls-9" d="M85.42,126.81l.11,5.72c.41,0,39.05,34.58,39.55,33.91,0-.25,3-2.91,2.39-3.19Z"/><path class="cls-9" d="M117.45,107.15l-6.64-.12L150,141c.38.52,2.53-2.78,2.81-2.82C153.35,137.53,117.51,107.58,117.45,107.15Z"/><line class="cls-9" x1="110.7" y1="101.3" x2="117.45" y2="107.15"/><path class="cls-10" d="M226.83,106.08H168.26c-3,0-5.41,1.72-5.41,3.83-1.78,27.16,1.49,55.27,34.68,57.17,32.77-1.54,36.68-30.37,34.73-57.17C232.27,107.8,229.82,106.08,226.83,106.08Z"/><path class="cls-11" d="M191.62,276.41H124.39c-10.8-.16-10.77,17,0,16.83h67.23a8.42,8.42,0,0,0,0-16.83Z"/><path class="cls-11" d="M204.88,287.85a13.5,13.5,0,0,0-13.5,13.5v40.81A165.07,165.07,0,0,0,231,329.09V301.36C230.44,286.37,215.84,287.53,204.88,287.85Z"/><path class="cls-11" d="M95.94,288.45A13.5,13.5,0,0,0,82.44,302V328a164.44,164.44,0,0,0,39.64,13.7V302C121.5,287,106.9,288.13,95.94,288.45Z"/><path class="cls-12" d="M208.75,285.71h-103c-7.84,0-14.2,6.85-14.2,15.3v31.18c41.3,17.44,90,17.61,131.42.5V301C223,292.56,216.59,285.71,208.75,285.71Z"/><path class="cls-10" d="M147.91,105.59H89.34c-3,0-5.41,1.72-5.41,3.83-1.77,27.16,1.5,55.27,34.69,57.17,32.77-1.55,36.67-30.37,34.73-57.17C153.35,107.31,150.9,105.59,147.91,105.59Z"/><path class="cls-7" d="M154.87,129.79c-3.13,0-3.12,4.87,0,4.83,2.1-.39,8.94,1.4,8.8-2.41C163.8,128.39,157,130.19,154.87,129.79Z"/><path class="cls-10" d="M190.18,201.47c1.17,10.5-63,10.5-61.82,0"/><path class="cls-7" d="M202.07,126.2a6.21,6.21,0,0,0-6.2-6.2c-8.82-.21-5.67,13-6.2,18.2a6.2,6.2,0,0,0,6.2,6.2C204.68,144.61,201.53,131.42,202.07,126.2Z"/><path class="cls-7" d="M123.57,126.2a6.21,6.21,0,0,0-6.2-6.2c-8.82-.21-5.67,13-6.21,18.2a6.2,6.2,0,0,0,6.21,6.2C126.18,144.61,123,131.42,123.57,126.2Z"/></g></g></svg>